<svg xmlns="http://www.w3.org/2000/svg" width="96" height="96" viewBox="0 0 96 96" role="img" aria-label="FYP Storyboard logo">
  <defs>
    <linearGradient id="grad" x1="0" y1="0" x2="1" y2="1">
      <stop offset="0" stop-color="#4f46e5"/>
      <stop offset="1" stop-color="#06b6d4"/>
    </linearGradient>
  </defs>
  <rect x="10" y="10" width="76" height="76" rx="18" ry="18" fill="url(#grad)"/>
  <!-- Book icon -->
  <path d="M30 32c0-3 2-5 5-5h26c3 0 5 2 5 5v36c0 3-2 5-5 5H35c-3 0-5-2-5-5V32z" fill="rgba(255,255,255,0.18)"/>
  <path d="M35 30h26c2 0 4 2 4 4v32c0 2-2 4-4 4H35c-2 0-4-2-4-4V34c0-2 2-4 4-4z" fill="#ffffff"/>
  <path d="M39 38h18" stroke="#4f46e5" stroke-width="4" stroke-linecap="round"/>
  <path d="M39 48h22" stroke="#06b6d4" stroke-width="4" stroke-linecap="round"/>
  <path d="M39 58h16" stroke="#4f46e5" stroke-width="4" stroke-linecap="round"/>
</svg>